<svg xmlns="http://www.w3.org/2000/svg" viewBox="0 0 377.57 141.29"><defs><style>.cls-1{fill:#e5e5e5;}.cls-2{fill:gray;}.cls-3{fill:#f0047f;}.cls-4{fill:#999;}.cls-5{fill:#831d8a;}.cls-6{fill:#9d807b;}.cls-7{fill:#ff8000;}.cls-8{fill:#f7e016;}.cls-9{fill:#01a0c6;}.cls-10{fill:#80c41c;}.cls-11{fill:#666;}</style></defs><title>Ativo 2</title><g id="Camada_2" data-name="Camada 2"><g id="Camada_1-2" data-name="Camada 1"><rect class="cls-1" x="1" y="1" width="139.29" height="139.29" rx="11.21" ry="11.21"/><path class="cls-2" d="M129.07,141.29H12.21A12.23,12.23,0,0,1,0,129.07V12.21A12.23,12.23,0,0,1,12.21,0H129.07a12.23,12.23,0,0,1,12.21,12.21V129.07A12.23,12.23,0,0,1,129.07,141.29ZM12.21,2A10.23,10.23,0,0,0,2,12.21V129.07a10.23,10.23,0,0,0,10.21,10.21H129.07a10.23,10.23,0,0,0,10.21-10.21V12.21A10.23,10.23,0,0,0,129.07,2Z"/><rect class="cls-3" x="11" y="11" width="25.25" height="25.95" rx="5.81" ry="5.81"/><path class="cls-4" d="M139.29,102.67H82.52a1.5,1.5,0,0,0,0,3h56.77Z"/><path class="cls-4" d="M139.29,112.67H82.52a1.5,1.5,0,0,0,0,3h56.77Z"/><path class="cls-4" d="M139.29,123H82.52a1.5,1.5,0,0,0,0,3h56.77Z"/><path class="cls-5" d="M110.9,82a5.69,5.69,0,0,0,5.77-5.6V68.38h-6.56A5.71,5.71,0,0,0,104.32,74v8Z"/><path class="cls-3" d="M123.94,68.38h-7.27v8.06a5.6,5.6,0,0,1-5.6,5.6h-6.75v6.66a5.63,5.63,0,0,0,5.63,5.63h14a5.63,5.63,0,0,0,5.63-5.63V74A5.63,5.63,0,0,0,123.94,68.38Z"/><path class="cls-6" d="M64.21,24a5.6,5.6,0,0,0-5.6,5.6V37h7a5.65,5.65,0,0,0,5.65-5.65V24Z"/><path class="cls-7" d="M58.61,29.58a5.6,5.6,0,0,1,5.6-5.6h7V16.65A5.65,5.65,0,0,0,65.59,11h-14A5.65,5.65,0,0,0,46,16.65V31.3A5.65,5.65,0,0,0,51.63,37h7Z"/><path class="cls-8" d="M64.21,82a5.6,5.6,0,0,1-5.6-5.6V47H16.67A5.67,5.67,0,0,0,11,52.62v72a5.67,5.67,0,0,0,5.67,5.67h48.9a5.67,5.67,0,0,0,5.67-5.67V82Z"/><path class="cls-9" d="M111.07,24H71.24V31.3A5.65,5.65,0,0,1,65.59,37h-7V47h7a5.67,5.67,0,0,1,5.67,5.67V82h33.08V74a5.71,5.71,0,0,1,5.79-5.63h6.56V29.58A5.6,5.6,0,0,0,111.07,24Z"/><path class="cls-10" d="M65.57,47h-7V76.44a5.6,5.6,0,0,0,5.6,5.6h7V52.62A5.67,5.67,0,0,0,65.57,47Z"/><path class="cls-4" d="M166.34,51.15a1.63,1.63,0,1,1-3.25,0V21.83a1.61,1.61,0,0,1,1.63-1.63h9.52c5.12,0,9.13,3,9.13,9.33s-3.92,9.37-9.13,9.37h-7.89Zm0-15.21h7.41c3.87,0,6.31-2.25,6.31-6.41s-2.49-6.36-6.31-6.36h-7.41Z"/><path class="cls-4" d="M190.73,52.39a1.61,1.61,0,0,1-1.63-1.63V21.83a1.61,1.61,0,0,1,1.63-1.63h15.35a1.48,1.48,0,0,1,0,3H192.36V34.7h10.52a1.48,1.48,0,0,1,0,3H192.36V49.43h14.25a1.48,1.48,0,1,1,0,3Z"/><path class="cls-4" d="M217.13,51.15a1.63,1.63,0,0,1-3.25,0V21.83a1.61,1.61,0,0,1,1.63-1.63H225a8.93,8.93,0,0,1,9.13,9.13,8.8,8.8,0,0,1-8.56,9.13l8.75,11.67a1.59,1.59,0,0,1,.33,1,1.63,1.63,0,0,1-3,.86L222,38.48h-4.83Zm0-15.64h8c3.35,0,5.74-2.73,5.74-6.17A5.83,5.83,0,0,0,225,23.17h-7.84Z"/><path class="cls-4" d="M249.6,22.5c-5,0-6.93,2.49-6.93,5.21,0,7.94,18.08,4.54,18.08,16.07,0,6-4.11,9.28-11.48,9.28-5.45,0-9.52-2.77-11.14-5.88a1.68,1.68,0,0,1-.24-.86,1.51,1.51,0,0,1,1.53-1.53,1.53,1.53,0,0,1,1.34.77,9.56,9.56,0,0,0,8.51,4.54c5.26,0,8.23-2.1,8.23-6.31,0-8.94-18.08-4.73-18.08-16.07,0-4.4,3.2-8.18,10.19-8.18,4.54,0,8.23,1.91,10.23,4.93a1.57,1.57,0,0,1,.29.91,1.54,1.54,0,0,1-2.77.91A9.46,9.46,0,0,0,249.6,22.5Z"/><path class="cls-4" d="M264.95,36.32c0-11.33,5.64-16.78,14.92-16.78S294.79,25,294.79,36.32s-5.64,16.74-14.92,16.74S264.95,47.56,264.95,36.32Zm3.35,0c0,9.33,4.26,13.77,11.57,13.77s11.57-4.45,11.57-13.77S287.19,22.5,279.87,22.5,268.3,27,268.3,36.32Z"/><path class="cls-4" d="M323.2,21.4V51.15a1.64,1.64,0,0,1-3,1L303.4,26.71V51.2a1.58,1.58,0,1,1-3.16,0V21.4a1.59,1.59,0,0,1,1.58-1.58,1.64,1.64,0,0,1,1.29.67L320,45.94V21.4a1.58,1.58,0,0,1,3.16,0Z"/><path class="cls-4" d="M334.53,42.88,331,51.63a1.67,1.67,0,0,1-1.58,1.15,1.64,1.64,0,0,1-1.63-1.63,1.92,1.92,0,0,1,.14-.72l11.67-29.51a1.58,1.58,0,0,1,1.53-1.1,1.69,1.69,0,0,1,1.58,1.1l11.67,29.51a2.37,2.37,0,0,1,.14.72,1.68,1.68,0,0,1-3.25.53l-3.44-8.8Zm6.65-17.6-5.64,14.63h11.33Z"/><path class="cls-4" d="M376,49.33a1.53,1.53,0,1,1,0,3.06H361.31a1.61,1.61,0,0,1-1.63-1.63V21.45a1.63,1.63,0,0,1,3.25,0V49.33Z"/><path class="cls-11" d="M189.11,93.36a11.13,11.13,0,0,0,5.65-9.94c0-9-5.62-13.92-15.84-13.92H166.39a3.34,3.34,0,0,0-3.3,3.3v44.63a3.34,3.34,0,0,0,3.3,3.3h14.75c9.81,0,15.91-5.73,15.91-15C197,99.82,194.18,95.4,189.11,93.36Zm1.27,12.41c0,5.76-3.22,8.8-9.32,8.8H169.68V97h11.38C187,97,190.38,100.22,190.38,105.76Zm-20.7-14.58V75.64h9.17c6.13,0,9.24,2.61,9.24,7.77,0,4.94-3.37,7.77-9.24,7.77Z"/><path class="cls-11" d="M225.62,68.46c-15.35,0-23.8,9.47-23.8,26.68s8.45,26.61,23.8,26.61,23.8-9.45,23.8-26.61S241,68.46,225.62,68.46Zm0,47.14c-11.16,0-17.06-7.07-17.06-20.46,0-13.62,5.74-20.53,17.06-20.53s17.06,6.91,17.06,20.53C242.69,108.52,236.79,115.6,225.62,115.6Z"/><path class="cls-11" d="M275.41,71.09a3.37,3.37,0,0,0-3.16-2.18,3.2,3.2,0,0,0-3.09,2.19l-18,45.45a3.74,3.74,0,0,0-.3,1.46,3.32,3.32,0,0,0,6.46,1l5.19-13H282l5.11,13.07a3.38,3.38,0,0,0,6.54-1.09,4.37,4.37,0,0,0-.28-1.4Zm4.46,28.8H264.69l7.56-19.6Z"/><path class="cls-11" d="M320.35,99.12c7.33-1,12.51-7,12.51-14.74A14.55,14.55,0,0,0,318,69.49H303.31a3.26,3.26,0,0,0-3.3,3.3V118a3.3,3.3,0,0,0,6.59,0V99.25h6.26l14.72,20.52a3.3,3.3,0,0,0,6.09-1.77,3.21,3.21,0,0,0-.67-2Zm-2.21-6H306.6V75.64h11.31c4.8,0,8.29,3.67,8.29,8.73S322.73,93.1,318.13,93.1Z"/><path class="cls-11" d="M354,69.49h-10.4a3.26,3.26,0,0,0-3.3,3.3v44.63a3.26,3.26,0,0,0,3.3,3.3H354c15.87,0,23.58-8.36,23.58-25.57S369.86,69.49,354,69.49Zm0,45.07h-7.1V75.64H354c11.7,0,16.92,6,16.92,19.5S365.85,114.56,354,114.56Z"/></g></g></svg>